<?xml version="1.0" encoding="UTF-8"?>
<svg xmlns="http://www.w3.org/2000/svg" version="1.1" width="400" height="400" viewBox="0 0 400 400"><rect x="0" y="0" width="400" height="400" fill="#fefefe"/><g transform="scale(8.889)"><g transform="translate(4,4)"><path fill-rule="evenodd" d="M8 0L8 1L9 1L9 2L10 2L10 3L11 3L11 1L13 1L13 2L12 2L12 4L11 4L11 5L10 5L10 4L9 4L9 5L10 5L10 8L9 8L9 6L8 6L8 8L9 8L9 10L10 10L10 11L11 11L11 13L10 13L10 12L6 12L6 13L5 13L5 12L4 12L4 10L2 10L2 8L0 8L0 10L2 10L2 12L1 12L1 11L0 11L0 14L2 14L2 15L1 15L1 19L0 19L0 20L1 20L1 21L2 21L2 18L4 18L4 19L3 19L3 22L4 22L4 23L2 23L2 22L0 22L0 23L1 23L1 24L0 24L0 29L1 29L1 27L2 27L2 29L4 29L4 28L5 28L5 29L8 29L8 30L9 30L9 29L10 29L10 28L11 28L11 29L12 29L12 30L11 30L11 31L12 31L12 32L14 32L14 31L15 31L15 33L16 33L16 29L17 29L17 31L18 31L18 32L17 32L17 33L21 33L21 31L20 31L20 30L22 30L22 31L24 31L24 33L23 33L23 32L22 32L22 34L20 34L20 35L19 35L19 34L18 34L18 35L16 35L16 34L15 34L15 36L14 36L14 37L15 37L15 36L16 36L16 37L22 37L22 36L23 36L23 35L25 35L25 34L24 34L24 33L25 33L25 32L26 32L26 30L25 30L25 31L24 31L24 30L22 30L22 29L21 29L21 27L22 27L22 26L20 26L20 24L21 24L21 21L20 21L20 24L19 24L19 23L18 23L18 22L19 22L19 21L18 21L18 20L17 20L17 19L18 19L18 18L19 18L19 19L20 19L20 20L21 20L21 17L20 17L20 16L21 16L21 15L22 15L22 14L23 14L23 13L22 13L22 14L19 14L19 15L18 15L18 14L17 14L17 12L18 12L18 10L20 10L20 8L21 8L21 6L22 6L22 8L23 8L23 6L24 6L24 9L21 9L21 10L22 10L22 11L23 11L23 12L24 12L24 13L25 13L25 12L24 12L24 9L25 9L25 10L27 10L27 11L26 11L26 12L27 12L27 13L26 13L26 14L24 14L24 16L22 16L22 17L24 17L24 18L22 18L22 19L23 19L23 26L24 26L24 25L25 25L25 24L24 24L24 22L25 22L25 21L24 21L24 20L26 20L26 22L27 22L27 24L30 24L30 26L29 26L29 27L30 27L30 26L31 26L31 28L27 28L27 27L28 27L28 25L26 25L26 26L25 26L25 27L26 27L26 28L24 28L24 29L26 29L26 28L27 28L27 29L28 29L28 31L27 31L27 33L26 33L26 35L27 35L27 34L28 34L28 35L29 35L29 36L28 36L28 37L29 37L29 36L30 36L30 37L34 37L34 36L36 36L36 37L37 37L37 34L36 34L36 35L35 35L35 33L37 33L37 29L35 29L35 27L36 27L36 28L37 28L37 26L35 26L35 25L37 25L37 22L36 22L36 21L37 21L37 20L36 20L36 19L37 19L37 18L36 18L36 19L35 19L35 18L34 18L34 17L35 17L35 14L34 14L34 15L33 15L33 13L34 13L34 12L35 12L35 13L37 13L37 8L36 8L36 11L35 11L35 10L34 10L34 9L31 9L31 8L30 8L30 9L29 9L29 10L28 10L28 7L29 7L29 4L28 4L28 3L29 3L29 1L28 1L28 2L27 2L27 3L26 3L26 1L27 1L27 0L26 0L26 1L25 1L25 0L22 0L22 1L21 1L21 0L20 0L20 1L19 1L19 0L17 0L17 1L18 1L18 3L19 3L19 2L21 2L21 3L23 3L23 2L22 2L22 1L25 1L25 3L24 3L24 4L25 4L25 6L24 6L24 5L22 5L22 4L21 4L21 5L20 5L20 4L18 4L18 5L16 5L16 8L15 8L15 4L14 4L14 7L13 7L13 5L12 5L12 4L13 4L13 3L16 3L16 4L17 4L17 2L15 2L15 1L16 1L16 0L14 0L14 1L13 1L13 0L11 0L11 1L9 1L9 0ZM25 3L25 4L26 4L26 3ZM27 4L27 5L26 5L26 6L25 6L25 7L26 7L26 6L27 6L27 7L28 7L28 4ZM11 5L11 7L12 7L12 9L10 9L10 10L12 10L12 11L13 11L13 13L11 13L11 14L13 14L13 13L14 13L14 12L15 12L15 13L16 13L16 12L17 12L17 10L18 10L18 9L19 9L19 8L18 8L18 6L19 6L19 7L20 7L20 5L18 5L18 6L17 6L17 8L16 8L16 12L15 12L15 11L13 11L13 10L12 10L12 9L14 9L14 10L15 10L15 8L13 8L13 7L12 7L12 5ZM3 8L3 9L5 9L5 11L8 11L8 10L6 10L6 9L7 9L7 8L6 8L6 9L5 9L5 8ZM17 8L17 9L18 9L18 8ZM30 9L30 10L31 10L31 9ZM20 11L20 12L19 12L19 13L21 13L21 11ZM27 11L27 12L28 12L28 11ZM30 11L30 12L29 12L29 13L30 13L30 14L28 14L28 15L30 15L30 16L28 16L28 17L27 17L27 14L26 14L26 15L25 15L25 16L26 16L26 17L25 17L25 18L26 18L26 19L27 19L27 20L29 20L29 22L28 22L28 23L29 23L29 22L31 22L31 26L32 26L32 25L33 25L33 26L34 26L34 27L32 27L32 28L34 28L34 27L35 27L35 26L34 26L34 25L35 25L35 24L36 24L36 22L32 22L32 21L33 21L33 19L34 19L34 21L36 21L36 20L35 20L35 19L34 19L34 18L33 18L33 17L32 17L32 16L31 16L31 15L30 15L30 14L32 14L32 13L33 13L33 12L32 12L32 11ZM30 12L30 13L32 13L32 12ZM2 13L2 14L4 14L4 13ZM6 13L6 14L7 14L7 15L3 15L3 17L5 17L5 16L7 16L7 17L6 17L6 18L5 18L5 19L4 19L4 22L5 22L5 19L6 19L6 20L7 20L7 21L6 21L6 22L7 22L7 21L8 21L8 22L11 22L11 21L13 21L13 22L15 22L15 20L16 20L16 19L15 19L15 20L13 20L13 19L14 19L14 17L13 17L13 18L12 18L12 20L11 20L11 19L10 19L10 18L11 18L11 17L12 17L12 16L14 16L14 15L15 15L15 16L16 16L16 18L17 18L17 17L19 17L19 18L20 18L20 17L19 17L19 16L20 16L20 15L19 15L19 16L18 16L18 15L17 15L17 14L16 14L16 15L15 15L15 14L14 14L14 15L12 15L12 16L11 16L11 17L10 17L10 15L9 15L9 16L8 16L8 14L9 14L9 13ZM36 14L36 17L37 17L37 14ZM30 16L30 17L31 17L31 18L30 18L30 21L32 21L32 17L31 17L31 16ZM7 17L7 18L6 18L6 19L7 19L7 20L8 20L8 21L9 21L9 20L10 20L10 19L9 19L9 18L10 18L10 17L9 17L9 18L8 18L8 17ZM7 18L7 19L8 19L8 18ZM27 18L27 19L29 19L29 18ZM16 21L16 22L17 22L17 21ZM4 23L4 24L5 24L5 25L4 25L4 26L5 26L5 25L6 25L6 26L7 26L7 25L8 25L8 27L6 27L6 28L8 28L8 27L9 27L9 26L10 26L10 27L11 27L11 28L12 28L12 29L13 29L13 30L14 30L14 29L13 29L13 28L17 28L17 29L18 29L18 27L15 27L15 25L14 25L14 24L16 24L16 25L18 25L18 26L19 26L19 25L18 25L18 24L17 24L17 23L13 23L13 24L12 24L12 23L11 23L11 24L12 24L12 25L14 25L14 27L13 27L13 28L12 28L12 26L11 26L11 25L10 25L10 23L6 23L6 24L5 24L5 23ZM32 23L32 24L33 24L33 23ZM34 23L34 24L35 24L35 23ZM1 24L1 26L3 26L3 25L2 25L2 24ZM6 24L6 25L7 25L7 24ZM8 24L8 25L9 25L9 24ZM19 27L19 28L20 28L20 27ZM19 29L19 30L20 30L20 29ZM29 29L29 32L32 32L32 29ZM33 29L33 30L34 30L34 29ZM30 30L30 31L31 31L31 30ZM35 30L35 31L34 31L34 32L33 32L33 33L31 33L31 34L30 34L30 35L31 35L31 34L34 34L34 32L36 32L36 30ZM19 31L19 32L20 32L20 31ZM8 32L8 34L9 34L9 35L8 35L8 37L10 37L10 36L11 36L11 37L12 37L12 36L13 36L13 35L14 35L14 34L13 34L13 33L11 33L11 34L9 34L9 32ZM22 34L22 35L20 35L20 36L22 36L22 35L23 35L23 34ZM9 35L9 36L10 36L10 35ZM18 35L18 36L19 36L19 35ZM32 35L32 36L33 36L33 35ZM24 36L24 37L26 37L26 36ZM0 0L0 7L7 7L7 0ZM1 1L1 6L6 6L6 1ZM2 2L2 5L5 5L5 2ZM30 0L30 7L37 7L37 0ZM31 1L31 6L36 6L36 1ZM32 2L32 5L35 5L35 2ZM0 30L0 37L7 37L7 30ZM1 31L1 36L6 36L6 31ZM2 32L2 35L5 35L5 32Z" fill="#000000"/></g></g></svg>
